<?xml version="1.0" encoding="UTF-8" standalone="no"?>
<!DOCTYPE svg PUBLIC "-//W3C//DTD SVG 1.1//EN"
 "http://www.w3.org/Graphics/SVG/1.1/DTD/svg11.dtd">
<!-- Generated by graphviz version 12.1.1 (20240910.0053)
 -->
<!-- Title: INFRA Pages: 1 -->
<svg width="2706pt" height="404pt"
 viewBox="0.00 0.00 2705.99 404.00" xmlns="http://www.w3.org/2000/svg" xmlns:xlink="http://www.w3.org/1999/xlink">
<g id="graph0" class="graph" transform="scale(1 1) rotate(0) translate(4 400)">
<title>INFRA</title>
<polygon fill="white" stroke="none" points="-4,4 -4,-400 2701.99,-400 2701.99,4 -4,4"/>
<!-- vpc&#45;main -->
<g id="node1" class="node">
<title>vpc&#45;main</title>
<ellipse fill="#e6e6e6" stroke="black" stroke-width="2" cx="938.08" cy="-36" rx="78.9" ry="36"/>
<text text-anchor="middle" x="938.08" y="-40.2" font-family="Arial" font-size="14.00">vpc&#45;main</text>
<text text-anchor="middle" x="938.08" y="-23.4" font-family="Arial" font-size="14.00">(AWS::EC2::VPC)</text>
</g>
<!-- subnet&#45;public&#45;1 -->
<g id="node2" class="node">
<title>subnet&#45;public&#45;1</title>
<ellipse fill="#e6e6e6" stroke="black" stroke-width="2" cx="1044.08" cy="-144" rx="88.45" ry="36"/>
<text text-anchor="middle" x="1044.08" y="-148.2" font-family="Arial" font-size="14.00">subnet&#45;public&#45;1</text>
<text text-anchor="middle" x="1044.08" y="-131.4" font-family="Arial" font-size="14.00">(AWS::EC2::Subnet)</text>
</g>
<!-- subnet&#45;public&#45;1&#45;&gt;vpc&#45;main -->
<g id="edge1" class="edge">
<title>subnet&#45;public&#45;1&#45;&gt;vpc&#45;main</title>
<path fill="none" stroke="black" d="M1011.41,-110.33C1000.84,-99.76 988.99,-87.91 977.96,-76.88"/>
<polygon fill="black" stroke="black" points="980.71,-74.68 971.17,-70.08 975.76,-79.63 980.71,-74.68"/>
</g>
<!-- subnet&#45;public&#45;2 -->
<g id="node3" class="node">
<title>subnet&#45;public&#45;2</title>
<ellipse fill="#e6e6e6" stroke="black" stroke-width="2" cx="1250.08" cy="-144" rx="88.45" ry="36"/>
<text text-anchor="middle" x="1250.08" y="-148.2" font-family="Arial" font-size="14.00">subnet&#45;public&#45;2</text>
<text text-anchor="middle" x="1250.08" y="-131.4" font-family="Arial" font-size="14.00">(AWS::EC2::Subnet)</text>
</g>
<!-- subnet&#45;public&#45;2&#45;&gt;vpc&#45;main -->
<g id="edge2" class="edge">
<title>subnet&#45;public&#45;2&#45;&gt;vpc&#45;main</title>
<path fill="none" stroke="black" d="M1183.15,-120.26C1132.67,-103.11 1063.47,-79.6 1011.47,-61.93"/>
<polygon fill="black" stroke="black" points="1012.68,-58.65 1002.09,-58.75 1010.43,-65.28 1012.68,-58.65"/>
</g>
<!-- igw&#45;main -->
<g id="node4" class="node">
<title>igw&#45;main</title>
<ellipse fill="#e6e6e6" stroke="black" stroke-width="2" cx="334.08" cy="-144" rx="124.19" ry="36"/>
<text text-anchor="middle" x="334.08" y="-148.2" font-family="Arial" font-size="14.00">igw&#45;main</text>
<text text-anchor="middle" x="334.08" y="-131.4" font-family="Arial" font-size="14.00">(AWS::EC2::InternetGateway)</text>
</g>
<!-- igw&#45;main&#45;&gt;vpc&#45;main -->
<g id="edge3" class="edge">
<title>igw&#45;main&#45;&gt;vpc&#45;main</title>
<path fill="none" stroke="black" d="M422.48,-118.32C437.31,-114.59 452.58,-110.99 467.08,-108 599.77,-80.62 755.54,-59.21 850.5,-47.34"/>
<polygon fill="black" stroke="black" points="850.78,-50.83 860.27,-46.12 849.91,-43.88 850.78,-50.83"/>
</g>
<!-- rt&#45;public -->
<g id="node5" class="node">
<title>rt&#45;public</title>
<ellipse fill="#e6e6e6" stroke="black" stroke-width="2" cx="832.08" cy="-144" rx="105.6" ry="36"/>
<text text-anchor="middle" x="832.08" y="-148.2" font-family="Arial" font-size="14.00">rt&#45;public</text>
<text text-anchor="middle" x="832.08" y="-131.4" font-family="Arial" font-size="14.00">(AWS::EC2::RouteTable)</text>
</g>
<!-- rt&#45;public&#45;&gt;vpc&#45;main -->
<g id="edge4" class="edge">
<title>rt&#45;public&#45;&gt;vpc&#45;main</title>
<path fill="none" stroke="black" d="M865.62,-109.46C875.87,-99.21 887.24,-87.84 897.88,-77.2"/>
<polygon fill="black" stroke="black" points="900.18,-79.85 904.78,-70.31 895.23,-74.9 900.18,-79.85"/>
</g>
<!-- internet&#45;route -->
<g id="node6" class="node">
<title>internet&#45;route</title>
<ellipse fill="#e6e6e6" stroke="black" stroke-width="2" cx="334.08" cy="-252" rx="84.15" ry="36"/>
<text text-anchor="middle" x="334.08" y="-256.2" font-family="Arial" font-size="14.00">internet&#45;route</text>
<text text-anchor="middle" x="334.08" y="-239.4" font-family="Arial" font-size="14.00">(AWS::EC2::Route)</text>
</g>
<!-- internet&#45;route&#45;&gt;igw&#45;main -->
<g id="edge6" class="edge">
<title>internet&#45;route&#45;&gt;igw&#45;main</title>
<path fill="none" stroke="black" d="M334.08,-215.7C334.08,-207.93 334.08,-199.57 334.08,-191.43"/>
<polygon fill="black" stroke="black" points="337.58,-191.66 334.08,-181.66 330.58,-191.66 337.58,-191.66"/>
</g>
<!-- internet&#45;route&#45;&gt;rt&#45;public -->
<g id="edge5" class="edge">
<title>internet&#45;route&#45;&gt;rt&#45;public</title>
<path fill="none" stroke="black" d="M393.71,-226.19C404.66,-222.32 416.11,-218.7 427.08,-216 553.18,-184.91 590.04,-207.01 717.08,-180 726.65,-177.97 736.56,-175.5 746.38,-172.84"/>
<polygon fill="black" stroke="black" points="747.26,-176.23 755.95,-170.16 745.38,-169.49 747.26,-176.23"/>
</g>
<!-- rt&#45;assoc&#45;public&#45;1 -->
<g id="node7" class="node">
<title>rt&#45;assoc&#45;public&#45;1</title>
<ellipse fill="#e6e6e6" stroke="black" stroke-width="2" cx="613.08" cy="-252" rx="176.64" ry="36"/>
<text text-anchor="middle" x="613.08" y="-256.2" font-family="Arial" font-size="14.00">rt&#45;assoc&#45;public&#45;1</text>
<text text-anchor="middle" x="613.08" y="-239.4" font-family="Arial" font-size="14.00">(AWS::EC2::SubnetRouteTableAssociation)</text>
</g>
<!-- rt&#45;assoc&#45;public&#45;1&#45;&gt;subnet&#45;public&#45;1 -->
<g id="edge7" class="edge">
<title>rt&#45;assoc&#45;public&#45;1&#45;&gt;subnet&#45;public&#45;1</title>
<path fill="none" stroke="black" d="M738.04,-226.29C815.8,-210.55 908.17,-191.1 947.08,-180 954.45,-177.9 962.07,-175.52 969.65,-173.02"/>
<polygon fill="black" stroke="black" points="970.52,-176.42 978.87,-169.89 968.28,-169.78 970.52,-176.42"/>
</g>
<!-- rt&#45;assoc&#45;public&#45;1&#45;&gt;rt&#45;public -->
<g id="edge8" class="edge">
<title>rt&#45;assoc&#45;public&#45;1&#45;&gt;rt&#45;public</title>
<path fill="none" stroke="black" d="M680.58,-218.33C706.43,-205.82 735.96,-191.52 762.04,-178.9"/>
<polygon fill="black" stroke="black" points="763.39,-182.13 770.87,-174.63 760.34,-175.83 763.39,-182.13"/>
</g>
<!-- rt&#45;assoc&#45;public&#45;2 -->
<g id="node8" class="node">
<title>rt&#45;assoc&#45;public&#45;2</title>
<ellipse fill="#e6e6e6" stroke="black" stroke-width="2" cx="1313.08" cy="-252" rx="176.64" ry="36"/>
<text text-anchor="middle" x="1313.08" y="-256.2" font-family="Arial" font-size="14.00">rt&#45;assoc&#45;public&#45;2</text>
<text text-anchor="middle" x="1313.08" y="-239.4" font-family="Arial" font-size="14.00">(AWS::EC2::SubnetRouteTableAssociation)</text>
</g>
<!-- rt&#45;assoc&#45;public&#45;2&#45;&gt;subnet&#45;public&#45;2 -->
<g id="edge9" class="edge">
<title>rt&#45;assoc&#45;public&#45;2&#45;&gt;subnet&#45;public&#45;2</title>
<path fill="none" stroke="black" d="M1292.28,-216C1287.12,-207.32 1281.53,-197.91 1276.15,-188.86"/>
<polygon fill="black" stroke="black" points="1279.32,-187.35 1271.21,-180.54 1273.31,-190.93 1279.32,-187.35"/>
</g>
<!-- rt&#45;assoc&#45;public&#45;2&#45;&gt;rt&#45;public -->
<g id="edge10" class="edge">
<title>rt&#45;assoc&#45;public&#45;2&#45;&gt;rt&#45;public</title>
<path fill="none" stroke="black" d="M1185.03,-226.84C1089.02,-208.6 970.32,-185.77 947.08,-180 937.98,-177.74 928.54,-175.19 919.14,-172.53"/>
<polygon fill="black" stroke="black" points="920.2,-169.2 909.62,-169.79 918.26,-175.92 920.2,-169.2"/>
</g>
<!-- sg&#45;alb -->
<g id="node9" class="node">
<title>sg&#45;alb</title>
<ellipse fill="#e6e6e6" stroke="black" stroke-width="2" cx="592.08" cy="-144" rx="116.08" ry="36"/>
<text text-anchor="middle" x="592.08" y="-148.2" font-family="Arial" font-size="14.00">sg&#45;alb</text>
<text text-anchor="middle" x="592.08" y="-131.4" font-family="Arial" font-size="14.00">(AWS::EC2::SecurityGroup)</text>
</g>
<!-- sg&#45;alb&#45;&gt;vpc&#45;main -->
<g id="edge11" class="edge">
<title>sg&#45;alb&#45;&gt;vpc&#45;main</title>
<path fill="none" stroke="black" d="M673.64,-118.01C730.77,-100.51 806.56,-77.29 862.36,-60.2"/>
<polygon fill="black" stroke="black" points="863.26,-63.58 871.79,-57.31 861.21,-56.89 863.26,-63.58"/>
</g>
<!-- sg&#45;instance -->
<g id="node10" class="node">
<title>sg&#45;instance</title>
<ellipse fill="#e6e6e6" stroke="black" stroke-width="2" cx="116.08" cy="-252" rx="116.08" ry="36"/>
<text text-anchor="middle" x="116.08" y="-256.2" font-family="Arial" font-size="14.00">sg&#45;instance</text>
<text text-anchor="middle" x="116.08" y="-239.4" font-family="Arial" font-size="14.00">(AWS::EC2::SecurityGroup)</text>
</g>
<!-- sg&#45;instance&#45;&gt;vpc&#45;main -->
<g id="edge12" class="edge">
<title>sg&#45;instance&#45;&gt;vpc&#45;main</title>
<path fill="none" stroke="black" d="M126.63,-215.88C138.76,-182.11 162.18,-132.67 201.08,-108 254.64,-74.03 663.68,-50.24 848.24,-41.12"/>
<polygon fill="black" stroke="black" points="848.2,-44.63 858.02,-40.64 847.86,-37.64 848.2,-44.63"/>
</g>
<!-- sg&#45;instance&#45;&gt;sg&#45;alb -->
<g id="edge13" class="edge">
<title>sg&#45;instance&#45;&gt;sg&#45;alb</title>
<path fill="none" stroke="black" d="M198.78,-226.4C212.83,-222.64 227.32,-219.01 241.08,-216 340.44,-194.25 367.72,-201.75 467.08,-180 477.29,-177.76 487.91,-175.19 498.45,-172.47"/>
<polygon fill="black" stroke="black" points="499.13,-175.91 507.91,-169.98 497.35,-169.14 499.13,-175.91"/>
</g>
<!-- role&#45;codedeploy -->
<g id="node11" class="node">
<title>role&#45;codedeploy</title>
<path fill="#e6e6e6" stroke="black" stroke-width="2" d="M2535.31,-288C2535.31,-288 2432.85,-288 2432.85,-288 2426.85,-288 2420.85,-282 2420.85,-276 2420.85,-276 2420.85,-228 2420.85,-228 2420.85,-222 2426.85,-216 2432.85,-216 2432.85,-216 2535.31,-216 2535.31,-216 2541.31,-216 2547.31,-222 2547.31,-228 2547.31,-228 2547.31,-276 2547.31,-276 2547.31,-282 2541.31,-288 2535.31,-288"/>
<text text-anchor="middle" x="2484.08" y="-256.2" font-family="Arial" font-size="14.00">role&#45;codedeploy</text>
<text text-anchor="middle" x="2484.08" y="-239.4" font-family="Arial" font-size="14.00">(AWS::IAM::Role)</text>
</g>
<!-- codedeploy&#45;autoscaling&#45;policy -->
<g id="node12" class="node">
<title>codedeploy&#45;autoscaling&#45;policy</title>
<path fill="#e6e6e6" stroke="black" stroke-width="2" d="M2461.86,-396C2461.86,-396 2282.3,-396 2282.3,-396 2276.3,-396 2270.3,-390 2270.3,-384 2270.3,-384 2270.3,-336 2270.3,-336 2270.3,-330 2276.3,-324 2282.3,-324 2282.3,-324 2461.86,-324 2461.86,-324 2467.86,-324 2473.86,-330 2473.86,-336 2473.86,-336 2473.86,-384 2473.86,-384 2473.86,-390 2467.86,-396 2461.86,-396"/>
<text text-anchor="middle" x="2372.08" y="-364.2" font-family="Arial" font-size="14.00">codedeploy&#45;autoscaling&#45;policy</text>
<text text-anchor="middle" x="2372.08" y="-347.4" font-family="Arial" font-size="14.00">(AWS::IAM::Policy)</text>
</g>
<!-- codedeploy&#45;autoscaling&#45;policy&#45;&gt;role&#45;codedeploy -->
<g id="edge14" class="edge">
<title>codedeploy&#45;autoscaling&#45;policy&#45;&gt;role&#45;codedeploy</title>
<path fill="none" stroke="black" d="M2409.38,-323.7C2418.82,-314.76 2429.07,-305.06 2438.86,-295.8"/>
<polygon fill="black" stroke="black" points="2440.99,-298.6 2445.85,-289.18 2436.18,-293.51 2440.99,-298.6"/>
</g>
<!-- attach&#45;cd&#45;managed -->
<g id="node13" class="node">
<title>attach&#45;cd&#45;managed</title>
<path fill="#e6e6e6" stroke="black" stroke-width="2" d="M2685.99,-396C2685.99,-396 2504.17,-396 2504.17,-396 2498.17,-396 2492.17,-390 2492.17,-384 2492.17,-384 2492.17,-336 2492.17,-336 2492.17,-330 2498.17,-324 2504.17,-324 2504.17,-324 2685.99,-324 2685.99,-324 2691.99,-324 2697.99,-330 2697.99,-336 2697.99,-336 2697.99,-384 2697.99,-384 2697.99,-390 2691.99,-396 2685.99,-396"/>
<text text-anchor="middle" x="2595.08" y="-364.2" font-family="Arial" font-size="14.00">attach&#45;cd&#45;managed</text>
<text text-anchor="middle" x="2595.08" y="-347.4" font-family="Arial" font-size="14.00">(AWS::IAM::PolicyAttachment)</text>
</g>
<!-- attach&#45;cd&#45;managed&#45;&gt;role&#45;codedeploy -->
<g id="edge15" class="edge">
<title>attach&#45;cd&#45;managed&#45;&gt;role&#45;codedeploy</title>
<path fill="none" stroke="black" d="M2558.12,-323.7C2548.85,-314.85 2538.8,-305.26 2529.19,-296.08"/>
<polygon fill="black" stroke="black" points="2531.62,-293.56 2521.98,-289.19 2526.79,-298.63 2531.62,-293.56"/>
</g>
<!-- role&#45;ec2 -->
<g id="node14" class="node">
<title>role&#45;ec2</title>
<path fill="#e6e6e6" stroke="black" stroke-width="2" d="M2096.31,-72C2096.31,-72 1993.85,-72 1993.85,-72 1987.85,-72 1981.85,-66 1981.85,-60 1981.85,-60 1981.85,-12 1981.85,-12 1981.85,-6 1987.85,0 1993.85,0 1993.85,0 2096.31,0 2096.31,0 2102.31,0 2108.31,-6 2108.31,-12 2108.31,-12 2108.31,-60 2108.31,-60 2108.31,-66 2102.31,-72 2096.31,-72"/>
<text text-anchor="middle" x="2045.08" y="-40.2" font-family="Arial" font-size="14.00">role&#45;ec2</text>
<text text-anchor="middle" x="2045.08" y="-23.4" font-family="Arial" font-size="14.00">(AWS::IAM::Role)</text>
</g>
<!-- ec2&#45;s3&#45;policy -->
<g id="node15" class="node">
<title>ec2&#45;s3&#45;policy</title>
<path fill="#e6e6e6" stroke="black" stroke-width="2" d="M2281.58,-180C2281.58,-180 2170.58,-180 2170.58,-180 2164.58,-180 2158.58,-174 2158.58,-168 2158.58,-168 2158.58,-120 2158.58,-120 2158.58,-114 2164.58,-108 2170.58,-108 2170.58,-108 2281.58,-108 2281.58,-108 2287.58,-108 2293.58,-114 2293.58,-120 2293.58,-120 2293.58,-168 2293.58,-168 2293.58,-174 2287.58,-180 2281.58,-180"/>
<text text-anchor="middle" x="2226.08" y="-148.2" font-family="Arial" font-size="14.00">ec2&#45;s3&#45;policy</text>
<text text-anchor="middle" x="2226.08" y="-131.4" font-family="Arial" font-size="14.00">(AWS::IAM::Policy)</text>
</g>
<!-- ec2&#45;s3&#45;policy&#45;&gt;role&#45;ec2 -->
<g id="edge16" class="edge">
<title>ec2&#45;s3&#45;policy&#45;&gt;role&#45;ec2</title>
<path fill="none" stroke="black" d="M2165.56,-107.56C2149.41,-98.1 2131.82,-87.8 2115.2,-78.07"/>
<polygon fill="black" stroke="black" points="2117.25,-75.21 2106.85,-73.18 2113.71,-81.25 2117.25,-75.21"/>
</g>
<!-- attach&#45;ssm -->
<g id="node16" class="node">
<title>attach&#45;ssm</title>
<path fill="#e6e6e6" stroke="black" stroke-width="2" d="M1919.99,-180C1919.99,-180 1738.17,-180 1738.17,-180 1732.17,-180 1726.17,-174 1726.17,-168 1726.17,-168 1726.17,-120 1726.17,-120 1726.17,-114 1732.17,-108 1738.17,-108 1738.17,-108 1919.99,-108 1919.99,-108 1925.99,-108 1931.99,-114 1931.99,-120 1931.99,-120 1931.99,-168 1931.99,-168 1931.99,-174 1925.99,-180 1919.99,-180"/>
<text text-anchor="middle" x="1829.08" y="-148.2" font-family="Arial" font-size="14.00">attach&#45;ssm</text>
<text text-anchor="middle" x="1829.08" y="-131.4" font-family="Arial" font-size="14.00">(AWS::IAM::PolicyAttachment)</text>
</g>
<!-- attach&#45;ssm&#45;&gt;role&#45;ec2 -->
<g id="edge17" class="edge">
<title>attach&#45;ssm&#45;&gt;role&#45;ec2</title>
<path fill="none" stroke="black" d="M1901.31,-107.56C1923.85,-96.49 1948.75,-84.28 1971.39,-73.16"/>
<polygon fill="black" stroke="black" points="1972.83,-76.36 1980.26,-68.81 1969.74,-70.07 1972.83,-76.36"/>
</g>
<!-- profile&#45;ec2 -->
<g id="node17" class="node">
<title>profile&#45;ec2</title>
<path fill="#e6e6e6" stroke="black" stroke-width="2" d="M2128.22,-180C2128.22,-180 1961.95,-180 1961.95,-180 1955.95,-180 1949.95,-174 1949.95,-168 1949.95,-168 1949.95,-120 1949.95,-120 1949.95,-114 1955.95,-108 1961.95,-108 1961.95,-108 2128.22,-108 2128.22,-108 2134.22,-108 2140.22,-114 2140.22,-120 2140.22,-120 2140.22,-168 2140.22,-168 2140.22,-174 2134.22,-180 2128.22,-180"/>
<text text-anchor="middle" x="2045.08" y="-148.2" font-family="Arial" font-size="14.00">profile&#45;ec2</text>
<text text-anchor="middle" x="2045.08" y="-131.4" font-family="Arial" font-size="14.00">(AWS::IAM::InstanceProfile)</text>
</g>
<!-- profile&#45;ec2&#45;&gt;role&#45;ec2 -->
<g id="edge18" class="edge">
<title>profile&#45;ec2&#45;&gt;role&#45;ec2</title>
<path fill="none" stroke="black" d="M2045.08,-107.7C2045.08,-99.93 2045.08,-91.57 2045.08,-83.43"/>
<polygon fill="black" stroke="black" points="2048.58,-83.66 2045.08,-73.66 2041.58,-83.66 2048.58,-83.66"/>
</g>
<!-- alb -->
<g id="node18" class="node">
<title>alb</title>
<path fill="#e78f81" stroke="black" stroke-width="2" d="M1106.16,-288C1106.16,-288 820,-288 820,-288 814,-288 808,-282 808,-276 808,-276 808,-228 808,-228 808,-222 814,-216 820,-216 820,-216 1106.16,-216 1106.16,-216 1112.16,-216 1118.16,-222 1118.16,-228 1118.16,-228 1118.16,-276 1118.16,-276 1118.16,-282 1112.16,-288 1106.16,-288"/>
<text text-anchor="middle" x="963.08" y="-256.2" font-family="Arial" font-size="14.00">alb</text>
<text text-anchor="middle" x="963.08" y="-239.4" font-family="Arial" font-size="14.00">(AWS::ElasticLoadBalancingV2::LoadBalancer)</text>
</g>
<!-- alb&#45;&gt;subnet&#45;public&#45;1 -->
<g id="edge19" class="edge">
<title>alb&#45;&gt;subnet&#45;public&#45;1</title>
<path fill="none" stroke="black" d="M990.05,-215.7C996.89,-206.76 1004.3,-197.06 1011.39,-187.79"/>
<polygon fill="black" stroke="black" points="1014.12,-189.98 1017.41,-179.91 1008.55,-185.73 1014.12,-189.98"/>
</g>
<!-- alb&#45;&gt;subnet&#45;public&#45;2 -->
<g id="edge20" class="edge">
<title>alb&#45;&gt;subnet&#45;public&#45;2</title>
<path fill="none" stroke="black" d="M1059.05,-215.56C1096.7,-201.65 1139.29,-185.92 1174.67,-172.85"/>
<polygon fill="black" stroke="black" points="1175.83,-176.16 1183.99,-169.41 1173.4,-169.59 1175.83,-176.16"/>
</g>
<!-- alb&#45;&gt;sg&#45;alb -->
<g id="edge21" class="edge">
<title>alb&#45;&gt;sg&#45;alb</title>
<path fill="none" stroke="black" d="M839.03,-215.56C789.59,-201.43 733.59,-185.43 687.43,-172.24"/>
<polygon fill="black" stroke="black" points="688.56,-168.93 677.98,-169.54 686.64,-175.66 688.56,-168.93"/>
</g>
<!-- blue&#45;tg -->
<g id="node19" class="node">
<title>blue&#45;tg</title>
<path fill="#e78f81" stroke="black" stroke-width="2" d="M1657.65,-180C1657.65,-180 1378.51,-180 1378.51,-180 1372.51,-180 1366.51,-174 1366.51,-168 1366.51,-168 1366.51,-120 1366.51,-120 1366.51,-114 1372.51,-108 1378.51,-108 1378.51,-108 1657.65,-108 1657.65,-108 1663.65,-108 1669.65,-114 1669.65,-120 1669.65,-120 1669.65,-168 1669.65,-168 1669.65,-174 1663.65,-180 1657.65,-180"/>
<text text-anchor="middle" x="1518.08" y="-148.2" font-family="Arial" font-size="14.00">blue&#45;tg</text>
<text text-anchor="middle" x="1518.08" y="-131.4" font-family="Arial" font-size="14.00">(AWS::ElasticLoadBalancingV2::TargetGroup)</text>
</g>
<!-- blue&#45;tg&#45;&gt;vpc&#45;main -->
<g id="edge22" class="edge">
<title>blue&#45;tg&#45;&gt;vpc&#45;main</title>
<path fill="none" stroke="black" d="M1366.15,-111.66C1359.71,-110.41 1353.33,-109.18 1347.08,-108 1235.37,-86.88 1106.03,-64.83 1023.21,-51.01"/>
<polygon fill="black" stroke="black" points="1024.02,-47.6 1013.58,-49.41 1022.87,-54.5 1024.02,-47.6"/>
</g>
<!-- green&#45;tg -->
<g id="node20" class="node">
<title>green&#45;tg</title>
<path fill="#e78f81" stroke="black" stroke-width="2" d="M2390.65,-288C2390.65,-288 2111.51,-288 2111.51,-288 2105.51,-288 2099.51,-282 2099.51,-276 2099.51,-276 2099.51,-228 2099.51,-228 2099.51,-222 2105.51,-216 2111.51,-216 2111.51,-216 2390.65,-216 2390.65,-216 2396.65,-216 2402.65,-222 2402.65,-228 2402.65,-228 2402.65,-276 2402.65,-276 2402.65,-282 2396.65,-288 2390.65,-288"/>
<text text-anchor="middle" x="2251.08" y="-256.2" font-family="Arial" font-size="14.00">green&#45;tg</text>
<text text-anchor="middle" x="2251.08" y="-239.4" font-family="Arial" font-size="14.00">(AWS::ElasticLoadBalancingV2::TargetGroup)</text>
</g>
<!-- green&#45;tg&#45;&gt;vpc&#45;main -->
<g id="edge23" class="edge">
<title>green&#45;tg&#45;&gt;vpc&#45;main</title>
<path fill="none" stroke="black" d="M2099.15,-217.31C2096.44,-216.85 2093.75,-216.42 2091.08,-216 2008.6,-203.06 1786.43,-226.49 1717.08,-180 1687.03,-159.85 1709.14,-128.14 1679.08,-108 1626.07,-72.48 1213.86,-49.51 1028.2,-40.87"/>
<polygon fill="black" stroke="black" points="1028.51,-37.38 1018.36,-40.41 1028.19,-44.37 1028.51,-37.38"/>
</g>
<!-- alb&#45;listener -->
<g id="node21" class="node">
<title>alb&#45;listener</title>
<path fill="#e78f81" stroke="black" stroke-width="2" d="M1365.87,-396C1365.87,-396 1116.3,-396 1116.3,-396 1110.3,-396 1104.3,-390 1104.3,-384 1104.3,-384 1104.3,-336 1104.3,-336 1104.3,-330 1110.3,-324 1116.3,-324 1116.3,-324 1365.87,-324 1365.87,-324 1371.87,-324 1377.87,-330 1377.87,-336 1377.87,-336 1377.87,-384 1377.87,-384 1377.87,-390 1371.87,-396 1365.87,-396"/>
<text text-anchor="middle" x="1241.08" y="-364.2" font-family="Arial" font-size="14.00">alb&#45;listener</text>
<text text-anchor="middle" x="1241.08" y="-347.4" font-family="Arial" font-size="14.00">(AWS::ElasticLoadBalancingV2::Listener)</text>
</g>
<!-- alb&#45;listener&#45;&gt;alb -->
<g id="edge24" class="edge">
<title>alb&#45;listener&#45;&gt;alb</title>
<path fill="none" stroke="black" d="M1148.12,-323.56C1121.93,-313.57 1093.27,-302.64 1066.5,-292.43"/>
<polygon fill="black" stroke="black" points="1067.95,-289.24 1057.36,-288.95 1065.46,-295.78 1067.95,-289.24"/>
</g>
<!-- alb&#45;listener&#45;&gt;blue&#45;tg -->
<g id="edge25" class="edge">
<title>alb&#45;listener&#45;&gt;blue&#45;tg</title>
<path fill="none" stroke="black" d="M1378.26,-335.41C1430.69,-323.58 1482.02,-307.56 1499.08,-288 1521.78,-261.97 1525.54,-222.5 1524.17,-191.61"/>
<polygon fill="black" stroke="black" points="1527.67,-191.5 1523.53,-181.75 1520.69,-191.96 1527.67,-191.5"/>
</g>
<!-- asg&#45;blue -->
<g id="node22" class="node">
<title>asg&#45;blue</title>
<path fill="#b7e0ff" stroke="black" stroke-width="2" d="M2069.64,-288C2069.64,-288 1832.52,-288 1832.52,-288 1826.52,-288 1820.52,-282 1820.52,-276 1820.52,-276 1820.52,-228 1820.52,-228 1820.52,-222 1826.52,-216 1832.52,-216 1832.52,-216 2069.64,-216 2069.64,-216 2075.64,-216 2081.64,-222 2081.64,-228 2081.64,-228 2081.64,-276 2081.64,-276 2081.64,-282 2075.64,-288 2069.64,-288"/>
<text text-anchor="middle" x="1951.08" y="-256.2" font-family="Arial" font-size="14.00">asg&#45;blue</text>
<text text-anchor="middle" x="1951.08" y="-239.4" font-family="Arial" font-size="14.00">(AWS::AutoScaling::AutoScalingGroup)</text>
</g>
<!-- asg&#45;blue&#45;&gt;subnet&#45;public&#45;1 -->
<g id="edge28" class="edge">
<title>asg&#45;blue&#45;&gt;subnet&#45;public&#45;1</title>
<path fill="none" stroke="black" d="M1820.08,-217.45C1817.06,-216.93 1814.05,-216.45 1811.08,-216 1521.48,-172.29 1441.09,-233.21 1153.08,-180 1142.23,-178 1130.97,-175.22 1119.97,-172.09"/>
<polygon fill="black" stroke="black" points="1121.13,-168.78 1110.54,-169.3 1119.14,-175.49 1121.13,-168.78"/>
</g>
<!-- asg&#45;blue&#45;&gt;subnet&#45;public&#45;2 -->
<g id="edge29" class="edge">
<title>asg&#45;blue&#45;&gt;subnet&#45;public&#45;2</title>
<path fill="none" stroke="black" d="M1820.06,-217.55C1817.04,-217 1814.05,-216.49 1811.08,-216 1611.32,-183.34 1555.55,-219.74 1357.08,-180 1346.77,-177.94 1336.06,-175.19 1325.59,-172.15"/>
<polygon fill="black" stroke="black" points="1326.81,-168.86 1316.23,-169.32 1324.79,-175.56 1326.81,-168.86"/>
</g>
<!-- asg&#45;blue&#45;&gt;profile&#45;ec2 -->
<g id="edge26" class="edge">
<title>asg&#45;blue&#45;&gt;profile&#45;ec2</title>
<path fill="none" stroke="black" d="M1982.38,-215.7C1990.07,-207.03 1998.39,-197.65 2006.39,-188.63"/>
<polygon fill="black" stroke="black" points="2008.9,-191.08 2012.91,-181.27 2003.66,-186.43 2008.9,-191.08"/>
</g>
<!-- asg&#45;blue&#45;&gt;blue&#45;tg -->
<g id="edge27" class="edge">
<title>asg&#45;blue&#45;&gt;blue&#45;tg</title>
<path fill="none" stroke="black" d="M1820.3,-218.27C1817.2,-217.51 1814.12,-216.75 1811.08,-216 1767.39,-205.25 1720,-193.71 1676.33,-183.13"/>
<polygon fill="black" stroke="black" points="1677.32,-179.76 1666.78,-180.81 1675.68,-186.57 1677.32,-179.76"/>
</g>
<!-- codedeploy&#45;app -->
<g id="node23" class="node">
<title>codedeploy&#45;app</title>
<path fill="#e6e6e6" stroke="black" stroke-width="2" d="M1790.24,-288C1790.24,-288 1595.93,-288 1595.93,-288 1589.93,-288 1583.93,-282 1583.93,-276 1583.93,-276 1583.93,-228 1583.93,-228 1583.93,-222 1589.93,-216 1595.93,-216 1595.93,-216 1790.24,-216 1790.24,-216 1796.24,-216 1802.24,-222 1802.24,-228 1802.24,-228 1802.24,-276 1802.24,-276 1802.24,-282 1796.24,-288 1790.24,-288"/>
<text text-anchor="middle" x="1693.08" y="-256.2" font-family="Arial" font-size="14.00">codedeploy&#45;app</text>
<text text-anchor="middle" x="1693.08" y="-239.4" font-family="Arial" font-size="14.00">(AWS::CodeDeploy::Application)</text>
</g>
<!-- codedeploy&#45;deployment&#45;group -->
<g id="node24" class="node">
<title>codedeploy&#45;deployment&#45;group</title>
<path fill="#e6e6e6" stroke="black" stroke-width="2" d="M2070.8,-396C2070.8,-396 1831.36,-396 1831.36,-396 1825.36,-396 1819.36,-390 1819.36,-384 1819.36,-384 1819.36,-336 1819.36,-336 1819.36,-330 1825.36,-324 1831.36,-324 1831.36,-324 2070.8,-324 2070.8,-324 2076.8,-324 2082.8,-330 2082.8,-336 2082.8,-336 2082.8,-384 2082.8,-384 2082.8,-390 2076.8,-396 2070.8,-396"/>
<text text-anchor="middle" x="1951.08" y="-364.2" font-family="Arial" font-size="14.00">codedeploy&#45;deployment&#45;group</text>
<text text-anchor="middle" x="1951.08" y="-347.4" font-family="Arial" font-size="14.00">(AWS::CodeDeploy::DeploymentGroup)</text>
</g>
<!-- codedeploy&#45;deployment&#45;group&#45;&gt;role&#45;codedeploy -->
<g id="edge30" class="edge">
<title>codedeploy&#45;deployment&#45;group&#45;&gt;role&#45;codedeploy</title>
<path fill="none" stroke="black" d="M2083.14,-343.12C2191.29,-329.35 2336.75,-308.84 2409.47,-288.41"/>
<polygon fill="black" stroke="black" points="2410.46,-291.77 2419.05,-285.56 2408.46,-285.06 2410.46,-291.77"/>
</g>
<!-- codedeploy&#45;deployment&#45;group&#45;&gt;blue&#45;tg -->
<g id="edge31" class="edge">
<title>codedeploy&#45;deployment&#45;group&#45;&gt;blue&#45;tg</title>
<path fill="none" stroke="black" d="M1819.35,-347.58C1726.35,-337.07 1612,-318.41 1575.08,-288 1546.02,-264.06 1531.68,-223.16 1524.66,-191.22"/>
<polygon fill="black" stroke="black" points="1528.18,-190.93 1522.77,-181.82 1521.31,-192.31 1528.18,-190.93"/>
</g>
<!-- codedeploy&#45;deployment&#45;group&#45;&gt;green&#45;tg -->
<g id="edge32" class="edge">
<title>codedeploy&#45;deployment&#45;group&#45;&gt;green&#45;tg</title>
<path fill="none" stroke="black" d="M2051.39,-323.56C2079.91,-313.48 2111.14,-302.45 2140.24,-292.16"/>
<polygon fill="black" stroke="black" points="2141.17,-295.55 2149.44,-288.91 2138.84,-288.95 2141.17,-295.55"/>
</g>
<!-- codedeploy&#45;deployment&#45;group&#45;&gt;asg&#45;blue -->
<g id="edge33" class="edge">
<title>codedeploy&#45;deployment&#45;group&#45;&gt;asg&#45;blue</title>
<path fill="none" stroke="black" d="M1951.08,-323.7C1951.08,-315.93 1951.08,-307.57 1951.08,-299.43"/>
<polygon fill="black" stroke="black" points="1954.58,-299.66 1951.08,-289.66 1947.58,-299.66 1954.58,-299.66"/>
</g>
<!-- codedeploy&#45;deployment&#45;group&#45;&gt;codedeploy&#45;app -->
<g id="edge34" class="edge">
<title>codedeploy&#45;deployment&#45;group&#45;&gt;codedeploy&#45;app</title>
<path fill="none" stroke="black" d="M1864.81,-323.56C1840.71,-313.66 1814.37,-302.83 1789.72,-292.7"/>
<polygon fill="black" stroke="black" points="1791.25,-289.55 1780.67,-288.99 1788.59,-296.02 1791.25,-289.55"/>
</g>
</g>
</svg>
